<?xml version="1.0" encoding="utf-8"?>
<!-- Generator: Adobe Illustrator 21.0.0, SVG Export Plug-In . SVG Version: 6.00 Build 0)  -->
<svg version="1.1" id="Layer_1" xmlns="http://www.w3.org/2000/svg" xmlns:xlink="http://www.w3.org/1999/xlink" x="0px" y="0px"
	 viewBox="0 0 512 512" style="enable-background:new 0 0 512 512;" xml:space="preserve">
<g>
	<path d="M213.3,0c-11.2,0-22.6,3.9-30.7,12c-8.1,8.1-12,19.5-12,30.7V64h-128v42.7H64V448c0,35.1,28.9,64,64,64h256
		c35.1,0,64-28.9,64-64V106.7h21.3V64h-128V42.7c0-11.2-3.9-22.6-12-30.7c-8.1-8.1-19.5-12-30.7-12H213.3z M213.3,42.7h85.3V64
		h-85.3V42.7z M106.7,106.7h298.7V448c0,11.8-9.5,21.3-21.3,21.3H128c-11.8,0-21.3-9.5-21.3-21.3V106.7z M149.3,170.7v234.7H192
		V170.7H149.3z M234.7,170.7v234.7h42.7V170.7H234.7z M320,170.7v234.7h42.7V170.7H320z"/>
</g>
</svg>
